Coordinates
version=1
nRows=9
nColumns=24
inDegrees=yes

Units are S.I. units (second, meters, Newtons, ...)
Angles are in degrees.

endheader
time	pelvis_tilt	pelvis_list	pelvis_rotation	pelvis_tx	pelvis_ty	pelvis_tz	hip_flexion_r	hip_adduction_r	hip_rotation_r	knee_angle_r	ankle_angle_r	subtalar_angle_r	mtp_angle_r	hip_flexion_l	hip_adduction_l	hip_rotation_l	knee_angle_l	ankle_angle_l	subtalar_angle_l	mtp_angle_l	lumbar_extension	lumbar_bending	lumbar_rotation
      4.06000000	     -3.37400590	     -2.57129274	     -5.42360007	      0.38279367	      1.00787194	     -0.04424225	     18.52061611	     -0.28182185	      4.24052236	    -59.76675685	      0.92186579	      0.00000000	      0.00000000	     12.41987847	     -2.79968619	      2.14751870	    -19.09553693	     10.27073950	      0.00000000	      0.00000000	     -9.60648183	      3.42653660	     -0.85279695
      4.07000000	     -3.42737777	     -2.77111510	     -5.64831411	      0.38244590	      1.00885064	     -0.04433757	     19.28410777	      0.10674907	      4.41511744	    -58.91890892	      1.61230087	      0.00000000	      0.00000000	     11.72051741	     -2.98887554	      1.98909500	    -18.61276210	     10.44143604	      0.00000000	      0.00000000	     -9.49298359	      3.53934961	     -0.95035444
      4.08000000	     -3.48568688	     -2.97992756	     -5.89601321	      0.38192518	      1.00977526	     -0.04434646	     19.98739598	      0.51646888	      4.61591541	    -57.81187017	      2.33669077	      0.00000000	      0.00000000	     11.03305624	     -3.19722900	      1.77654263	    -18.12128732	     10.55236100	      0.00000000	      0.00000000	     -9.41728047	      3.66428823	     -1.00676711
      4.09000000	     -3.57426551	     -3.15139237	     -6.09729548	      0.38132546	      1.01053065	     -0.04434171	     20.65896301	      0.85590234	      4.75475824	    -56.47816170	      3.02885515	      0.00000000	      0.00000000	     10.39191221	     -3.36320289	      1.59084725	    -17.63154137	     10.73086033	      0.00000000	      0.00000000	     -9.31245480	      3.75793301	     -1.12074321
      4.10000000	     -3.63442713	     -3.15476659	     -6.26623791	      0.38057095	      1.01110362	     -0.04456158	     21.28747278	      0.91449505	      4.76084064	    -54.94329858	      3.41251676	      0.00000000	      0.00000000	      9.91122540	     -3.31517091	      1.44705375	    -17.51069985	     10.88281161	      0.00000000	      0.00000000	     -9.23937970	      3.69578443	     -1.28173919
      4.11000000	     -3.77830466	     -3.47950898	     -6.51576543	      0.37992830	      1.01163218	     -0.04432916	     21.78839920	      1.43580089	      4.93955622	    -53.05786790	      4.47327323	      0.00000000	      0.00000000	      9.14506481	     -3.67415978	      1.23364782	    -16.65734876	     11.02160471	      0.00000000	      0.00000000	     -9.10191031	      3.97605350	     -1.32269214
      4.12000000	     -3.75447874	     -3.68340206	     -6.72671700	      0.37916157	      1.01223831	     -0.04419483	     22.04256643	      1.72542125	      5.01085456	    -50.88828152	      5.01225865	      0.00000000	      0.00000000	      8.37125811	     -3.86917787	      0.96367407	    -16.13176858	     11.09875076	      0.00000000	      0.00000000	     -9.17019575	      4.11479544	     -1.40037010
      4.13000000	     -3.75634417	     -3.82143826	     -6.89926912	      0.37838574	      1.01263245	     -0.04416685	     22.26802162	      1.88849351	      4.98937053	    -48.51438514	      5.36342094	      0.00000000	      0.00000000	      7.63885407	     -3.97452509	      0.79921815	    -15.61092114	     11.24752353	      0.00000000	      0.00000000	     -9.19877756	      4.20485398	     -1.50177636
      4.14000000	     -3.84395115	     -3.71226725	     -7.00707196	      0.37742822	      1.01259176	     -0.04418161	     22.64641354	      1.76720228	      4.94141893	    -46.14457838	      5.49153460	      0.00000000	      0.00000000	      7.19377615	     -3.81671732	      0.62618925	    -15.41674107	     11.48477983	      0.00000000	      0.00000000	     -9.10722328	      4.03739259	     -1.71585393
